<mxfile host="app.diagrams.net" modified="2023-08-09T02:09:48.215Z" agent="Mozilla/5.0 (Windows NT 10.0; Win64; x64) AppleWebKit/537.36 (KHTML, like Gecko) Chrome/115.0.0.0 Safari/537.36" etag="9RU4QoOkoof4Sy7Mql0o" version="21.6.6" type="device">
  <diagram name="第 1 页" id="1BEyJDFW5RH3oEqhVJVD">
    <mxGraphModel dx="1050" dy="534" grid="1" gridSize="10" guides="1" tooltips="1" connect="1" arrows="1" fold="1" page="1" pageScale="1" pageWidth="827" pageHeight="1169" math="0" shadow="0">
      <root>
        <mxCell id="0" />
        <mxCell id="1" parent="0" />
        <mxCell id="DGrf6kbu_troe9t0G2w3-7" value="" style="rounded=1;whiteSpace=wrap;html=1;" parent="1" vertex="1">
          <mxGeometry x="260" y="20" width="390" height="540" as="geometry" />
        </mxCell>
        <mxCell id="DGrf6kbu_troe9t0G2w3-1" value="produce" style="ellipse;whiteSpace=wrap;html=1;" parent="1" vertex="1">
          <mxGeometry x="11" y="120" width="120" height="80" as="geometry" />
        </mxCell>
        <mxCell id="DGrf6kbu_troe9t0G2w3-2" value="produce" style="ellipse;whiteSpace=wrap;html=1;" parent="1" vertex="1">
          <mxGeometry x="11" y="230" width="120" height="80" as="geometry" />
        </mxCell>
        <mxCell id="DGrf6kbu_troe9t0G2w3-3" value="produce" style="ellipse;whiteSpace=wrap;html=1;" parent="1" vertex="1">
          <mxGeometry x="11" y="340" width="120" height="80" as="geometry" />
        </mxCell>
        <mxCell id="DGrf6kbu_troe9t0G2w3-72" style="rounded=0;orthogonalLoop=1;jettySize=auto;html=1;exitX=1;exitY=0.5;exitDx=0;exitDy=0;entryX=1;entryY=0.5;entryDx=0;entryDy=0;" parent="1" source="DGrf6kbu_troe9t0G2w3-7" target="DGrf6kbu_troe9t0G2w3-10" edge="1">
          <mxGeometry relative="1" as="geometry" />
        </mxCell>
        <mxCell id="DGrf6kbu_troe9t0G2w3-8" value="topic1（&lt;font color=&quot;#ff0000&quot;&gt;逻辑概念&lt;/font&gt;）" style="text;html=1;align=center;verticalAlign=middle;resizable=0;points=[];autosize=1;strokeColor=none;fillColor=none;" parent="1" vertex="1">
          <mxGeometry x="284" y="28" width="130" height="30" as="geometry" />
        </mxCell>
        <mxCell id="DGrf6kbu_troe9t0G2w3-9" value="" style="rounded=0;whiteSpace=wrap;html=1;" parent="1" vertex="1">
          <mxGeometry x="280" y="58" width="150" height="220" as="geometry" />
        </mxCell>
        <mxCell id="DGrf6kbu_troe9t0G2w3-10" value="" style="rounded=0;whiteSpace=wrap;html=1;" parent="1" vertex="1">
          <mxGeometry x="470" y="58" width="150" height="220" as="geometry" />
        </mxCell>
        <mxCell id="DGrf6kbu_troe9t0G2w3-11" value="" style="rounded=0;whiteSpace=wrap;html=1;" parent="1" vertex="1">
          <mxGeometry x="280" y="290" width="150" height="220" as="geometry" />
        </mxCell>
        <mxCell id="DGrf6kbu_troe9t0G2w3-12" value="" style="rounded=0;whiteSpace=wrap;html=1;" parent="1" vertex="1">
          <mxGeometry x="470" y="290" width="150" height="220" as="geometry" />
        </mxCell>
        <mxCell id="DGrf6kbu_troe9t0G2w3-13" value="partion1" style="text;html=1;strokeColor=none;fillColor=none;align=center;verticalAlign=middle;whiteSpace=wrap;rounded=0;" parent="1" vertex="1">
          <mxGeometry x="280" y="70" width="60" height="30" as="geometry" />
        </mxCell>
        <mxCell id="DGrf6kbu_troe9t0G2w3-14" value="partion2" style="text;html=1;strokeColor=none;fillColor=none;align=center;verticalAlign=middle;whiteSpace=wrap;rounded=0;" parent="1" vertex="1">
          <mxGeometry x="470" y="70" width="60" height="30" as="geometry" />
        </mxCell>
        <mxCell id="DGrf6kbu_troe9t0G2w3-15" value="partion3" style="text;html=1;strokeColor=none;fillColor=none;align=center;verticalAlign=middle;whiteSpace=wrap;rounded=0;" parent="1" vertex="1">
          <mxGeometry x="280" y="300" width="60" height="30" as="geometry" />
        </mxCell>
        <mxCell id="DGrf6kbu_troe9t0G2w3-16" value="partion4" style="text;html=1;strokeColor=none;fillColor=none;align=center;verticalAlign=middle;whiteSpace=wrap;rounded=0;" parent="1" vertex="1">
          <mxGeometry x="470" y="300" width="60" height="30" as="geometry" />
        </mxCell>
        <mxCell id="DGrf6kbu_troe9t0G2w3-27" value="" style="group" parent="1" vertex="1" connectable="0">
          <mxGeometry x="294" y="180" width="120" height="60" as="geometry" />
        </mxCell>
        <mxCell id="DGrf6kbu_troe9t0G2w3-23" value="" style="rounded=0;whiteSpace=wrap;html=1;" parent="DGrf6kbu_troe9t0G2w3-27" vertex="1">
          <mxGeometry width="120" height="60" as="geometry" />
        </mxCell>
        <mxCell id="DGrf6kbu_troe9t0G2w3-24" value="" style="endArrow=none;html=1;rounded=0;exitX=0.25;exitY=0;exitDx=0;exitDy=0;entryX=0.25;entryY=1;entryDx=0;entryDy=0;" parent="DGrf6kbu_troe9t0G2w3-27" source="DGrf6kbu_troe9t0G2w3-23" target="DGrf6kbu_troe9t0G2w3-23" edge="1">
          <mxGeometry width="50" height="50" relative="1" as="geometry">
            <mxPoint x="36" y="70" as="sourcePoint" />
            <mxPoint x="86" y="20" as="targetPoint" />
          </mxGeometry>
        </mxCell>
        <mxCell id="DGrf6kbu_troe9t0G2w3-25" value="" style="endArrow=none;html=1;rounded=0;entryX=0.5;entryY=0;entryDx=0;entryDy=0;exitX=0.5;exitY=1;exitDx=0;exitDy=0;" parent="DGrf6kbu_troe9t0G2w3-27" source="DGrf6kbu_troe9t0G2w3-23" target="DGrf6kbu_troe9t0G2w3-23" edge="1">
          <mxGeometry width="50" height="50" relative="1" as="geometry">
            <mxPoint x="36" y="140" as="sourcePoint" />
            <mxPoint x="86" y="90" as="targetPoint" />
          </mxGeometry>
        </mxCell>
        <mxCell id="DGrf6kbu_troe9t0G2w3-26" value="" style="endArrow=none;html=1;rounded=0;entryX=0.75;entryY=0;entryDx=0;entryDy=0;exitX=0.75;exitY=1;exitDx=0;exitDy=0;" parent="DGrf6kbu_troe9t0G2w3-27" source="DGrf6kbu_troe9t0G2w3-23" target="DGrf6kbu_troe9t0G2w3-23" edge="1">
          <mxGeometry width="50" height="50" relative="1" as="geometry">
            <mxPoint x="46" y="120" as="sourcePoint" />
            <mxPoint x="96" y="70" as="targetPoint" />
          </mxGeometry>
        </mxCell>
        <mxCell id="DGrf6kbu_troe9t0G2w3-28" value="" style="group" parent="1" vertex="1" connectable="0">
          <mxGeometry x="490" y="100" width="120" height="60" as="geometry" />
        </mxCell>
        <mxCell id="DGrf6kbu_troe9t0G2w3-29" value="" style="rounded=0;whiteSpace=wrap;html=1;" parent="DGrf6kbu_troe9t0G2w3-28" vertex="1">
          <mxGeometry width="120" height="60" as="geometry" />
        </mxCell>
        <mxCell id="DGrf6kbu_troe9t0G2w3-30" value="" style="endArrow=none;html=1;rounded=0;exitX=0.25;exitY=0;exitDx=0;exitDy=0;entryX=0.25;entryY=1;entryDx=0;entryDy=0;" parent="DGrf6kbu_troe9t0G2w3-28" source="DGrf6kbu_troe9t0G2w3-29" target="DGrf6kbu_troe9t0G2w3-29" edge="1">
          <mxGeometry width="50" height="50" relative="1" as="geometry">
            <mxPoint x="36" y="70" as="sourcePoint" />
            <mxPoint x="86" y="20" as="targetPoint" />
          </mxGeometry>
        </mxCell>
        <mxCell id="DGrf6kbu_troe9t0G2w3-31" value="" style="endArrow=none;html=1;rounded=0;entryX=0.5;entryY=0;entryDx=0;entryDy=0;exitX=0.5;exitY=1;exitDx=0;exitDy=0;" parent="DGrf6kbu_troe9t0G2w3-28" source="DGrf6kbu_troe9t0G2w3-29" target="DGrf6kbu_troe9t0G2w3-29" edge="1">
          <mxGeometry width="50" height="50" relative="1" as="geometry">
            <mxPoint x="36" y="140" as="sourcePoint" />
            <mxPoint x="86" y="90" as="targetPoint" />
          </mxGeometry>
        </mxCell>
        <mxCell id="DGrf6kbu_troe9t0G2w3-32" value="" style="endArrow=none;html=1;rounded=0;entryX=0.75;entryY=0;entryDx=0;entryDy=0;exitX=0.75;exitY=1;exitDx=0;exitDy=0;" parent="DGrf6kbu_troe9t0G2w3-28" source="DGrf6kbu_troe9t0G2w3-29" target="DGrf6kbu_troe9t0G2w3-29" edge="1">
          <mxGeometry width="50" height="50" relative="1" as="geometry">
            <mxPoint x="46" y="120" as="sourcePoint" />
            <mxPoint x="96" y="70" as="targetPoint" />
          </mxGeometry>
        </mxCell>
        <mxCell id="DGrf6kbu_troe9t0G2w3-33" value="" style="group" parent="1" vertex="1" connectable="0">
          <mxGeometry x="490" y="180" width="120" height="60" as="geometry" />
        </mxCell>
        <mxCell id="DGrf6kbu_troe9t0G2w3-34" value="" style="rounded=0;whiteSpace=wrap;html=1;" parent="DGrf6kbu_troe9t0G2w3-33" vertex="1">
          <mxGeometry width="120" height="60" as="geometry" />
        </mxCell>
        <mxCell id="DGrf6kbu_troe9t0G2w3-35" value="" style="endArrow=none;html=1;rounded=0;exitX=0.25;exitY=0;exitDx=0;exitDy=0;entryX=0.25;entryY=1;entryDx=0;entryDy=0;" parent="DGrf6kbu_troe9t0G2w3-33" source="DGrf6kbu_troe9t0G2w3-34" target="DGrf6kbu_troe9t0G2w3-34" edge="1">
          <mxGeometry width="50" height="50" relative="1" as="geometry">
            <mxPoint x="36" y="70" as="sourcePoint" />
            <mxPoint x="86" y="20" as="targetPoint" />
          </mxGeometry>
        </mxCell>
        <mxCell id="DGrf6kbu_troe9t0G2w3-36" value="" style="endArrow=none;html=1;rounded=0;entryX=0.5;entryY=0;entryDx=0;entryDy=0;exitX=0.5;exitY=1;exitDx=0;exitDy=0;" parent="DGrf6kbu_troe9t0G2w3-33" source="DGrf6kbu_troe9t0G2w3-34" target="DGrf6kbu_troe9t0G2w3-34" edge="1">
          <mxGeometry width="50" height="50" relative="1" as="geometry">
            <mxPoint x="36" y="140" as="sourcePoint" />
            <mxPoint x="86" y="90" as="targetPoint" />
          </mxGeometry>
        </mxCell>
        <mxCell id="DGrf6kbu_troe9t0G2w3-37" value="" style="endArrow=none;html=1;rounded=0;entryX=0.75;entryY=0;entryDx=0;entryDy=0;exitX=0.75;exitY=1;exitDx=0;exitDy=0;" parent="DGrf6kbu_troe9t0G2w3-33" source="DGrf6kbu_troe9t0G2w3-34" target="DGrf6kbu_troe9t0G2w3-34" edge="1">
          <mxGeometry width="50" height="50" relative="1" as="geometry">
            <mxPoint x="46" y="120" as="sourcePoint" />
            <mxPoint x="96" y="70" as="targetPoint" />
          </mxGeometry>
        </mxCell>
        <mxCell id="DGrf6kbu_troe9t0G2w3-38" value="" style="group" parent="1" vertex="1" connectable="0">
          <mxGeometry x="294" y="340" width="120" height="60" as="geometry" />
        </mxCell>
        <mxCell id="DGrf6kbu_troe9t0G2w3-39" value="" style="rounded=0;whiteSpace=wrap;html=1;" parent="DGrf6kbu_troe9t0G2w3-38" vertex="1">
          <mxGeometry width="120" height="60" as="geometry" />
        </mxCell>
        <mxCell id="DGrf6kbu_troe9t0G2w3-40" value="" style="endArrow=none;html=1;rounded=0;exitX=0.25;exitY=0;exitDx=0;exitDy=0;entryX=0.25;entryY=1;entryDx=0;entryDy=0;" parent="DGrf6kbu_troe9t0G2w3-38" source="DGrf6kbu_troe9t0G2w3-39" target="DGrf6kbu_troe9t0G2w3-39" edge="1">
          <mxGeometry width="50" height="50" relative="1" as="geometry">
            <mxPoint x="36" y="70" as="sourcePoint" />
            <mxPoint x="86" y="20" as="targetPoint" />
          </mxGeometry>
        </mxCell>
        <mxCell id="DGrf6kbu_troe9t0G2w3-41" value="" style="endArrow=none;html=1;rounded=0;entryX=0.5;entryY=0;entryDx=0;entryDy=0;exitX=0.5;exitY=1;exitDx=0;exitDy=0;" parent="DGrf6kbu_troe9t0G2w3-38" source="DGrf6kbu_troe9t0G2w3-39" target="DGrf6kbu_troe9t0G2w3-39" edge="1">
          <mxGeometry width="50" height="50" relative="1" as="geometry">
            <mxPoint x="36" y="140" as="sourcePoint" />
            <mxPoint x="86" y="90" as="targetPoint" />
          </mxGeometry>
        </mxCell>
        <mxCell id="DGrf6kbu_troe9t0G2w3-42" value="" style="endArrow=none;html=1;rounded=0;entryX=0.75;entryY=0;entryDx=0;entryDy=0;exitX=0.75;exitY=1;exitDx=0;exitDy=0;" parent="DGrf6kbu_troe9t0G2w3-38" source="DGrf6kbu_troe9t0G2w3-39" target="DGrf6kbu_troe9t0G2w3-39" edge="1">
          <mxGeometry width="50" height="50" relative="1" as="geometry">
            <mxPoint x="46" y="120" as="sourcePoint" />
            <mxPoint x="96" y="70" as="targetPoint" />
          </mxGeometry>
        </mxCell>
        <mxCell id="DGrf6kbu_troe9t0G2w3-43" value="" style="group" parent="1" vertex="1" connectable="0">
          <mxGeometry x="294" y="420" width="120" height="60" as="geometry" />
        </mxCell>
        <mxCell id="DGrf6kbu_troe9t0G2w3-44" value="" style="rounded=0;whiteSpace=wrap;html=1;" parent="DGrf6kbu_troe9t0G2w3-43" vertex="1">
          <mxGeometry width="120" height="60" as="geometry" />
        </mxCell>
        <mxCell id="DGrf6kbu_troe9t0G2w3-45" value="" style="endArrow=none;html=1;rounded=0;exitX=0.25;exitY=0;exitDx=0;exitDy=0;entryX=0.25;entryY=1;entryDx=0;entryDy=0;" parent="DGrf6kbu_troe9t0G2w3-43" source="DGrf6kbu_troe9t0G2w3-44" target="DGrf6kbu_troe9t0G2w3-44" edge="1">
          <mxGeometry width="50" height="50" relative="1" as="geometry">
            <mxPoint x="36" y="70" as="sourcePoint" />
            <mxPoint x="86" y="20" as="targetPoint" />
          </mxGeometry>
        </mxCell>
        <mxCell id="DGrf6kbu_troe9t0G2w3-46" value="" style="endArrow=none;html=1;rounded=0;entryX=0.5;entryY=0;entryDx=0;entryDy=0;exitX=0.5;exitY=1;exitDx=0;exitDy=0;" parent="DGrf6kbu_troe9t0G2w3-43" source="DGrf6kbu_troe9t0G2w3-44" target="DGrf6kbu_troe9t0G2w3-44" edge="1">
          <mxGeometry width="50" height="50" relative="1" as="geometry">
            <mxPoint x="36" y="140" as="sourcePoint" />
            <mxPoint x="86" y="90" as="targetPoint" />
          </mxGeometry>
        </mxCell>
        <mxCell id="DGrf6kbu_troe9t0G2w3-47" value="" style="endArrow=none;html=1;rounded=0;entryX=0.75;entryY=0;entryDx=0;entryDy=0;exitX=0.75;exitY=1;exitDx=0;exitDy=0;" parent="DGrf6kbu_troe9t0G2w3-43" source="DGrf6kbu_troe9t0G2w3-44" target="DGrf6kbu_troe9t0G2w3-44" edge="1">
          <mxGeometry width="50" height="50" relative="1" as="geometry">
            <mxPoint x="46" y="120" as="sourcePoint" />
            <mxPoint x="96" y="70" as="targetPoint" />
          </mxGeometry>
        </mxCell>
        <mxCell id="DGrf6kbu_troe9t0G2w3-48" value="" style="group" parent="1" vertex="1" connectable="0">
          <mxGeometry x="490" y="340" width="120" height="60" as="geometry" />
        </mxCell>
        <mxCell id="DGrf6kbu_troe9t0G2w3-49" value="" style="rounded=0;whiteSpace=wrap;html=1;" parent="DGrf6kbu_troe9t0G2w3-48" vertex="1">
          <mxGeometry width="120" height="60" as="geometry" />
        </mxCell>
        <mxCell id="DGrf6kbu_troe9t0G2w3-50" value="" style="endArrow=none;html=1;rounded=0;exitX=0.25;exitY=0;exitDx=0;exitDy=0;entryX=0.25;entryY=1;entryDx=0;entryDy=0;" parent="DGrf6kbu_troe9t0G2w3-48" source="DGrf6kbu_troe9t0G2w3-49" target="DGrf6kbu_troe9t0G2w3-49" edge="1">
          <mxGeometry width="50" height="50" relative="1" as="geometry">
            <mxPoint x="36" y="70" as="sourcePoint" />
            <mxPoint x="86" y="20" as="targetPoint" />
          </mxGeometry>
        </mxCell>
        <mxCell id="DGrf6kbu_troe9t0G2w3-51" value="" style="endArrow=none;html=1;rounded=0;entryX=0.5;entryY=0;entryDx=0;entryDy=0;exitX=0.5;exitY=1;exitDx=0;exitDy=0;" parent="DGrf6kbu_troe9t0G2w3-48" source="DGrf6kbu_troe9t0G2w3-49" target="DGrf6kbu_troe9t0G2w3-49" edge="1">
          <mxGeometry width="50" height="50" relative="1" as="geometry">
            <mxPoint x="36" y="140" as="sourcePoint" />
            <mxPoint x="86" y="90" as="targetPoint" />
          </mxGeometry>
        </mxCell>
        <mxCell id="DGrf6kbu_troe9t0G2w3-52" value="" style="endArrow=none;html=1;rounded=0;entryX=0.75;entryY=0;entryDx=0;entryDy=0;exitX=0.75;exitY=1;exitDx=0;exitDy=0;" parent="DGrf6kbu_troe9t0G2w3-48" source="DGrf6kbu_troe9t0G2w3-49" target="DGrf6kbu_troe9t0G2w3-49" edge="1">
          <mxGeometry width="50" height="50" relative="1" as="geometry">
            <mxPoint x="46" y="120" as="sourcePoint" />
            <mxPoint x="96" y="70" as="targetPoint" />
          </mxGeometry>
        </mxCell>
        <mxCell id="DGrf6kbu_troe9t0G2w3-53" value="" style="group" parent="1" vertex="1" connectable="0">
          <mxGeometry x="490" y="420" width="120" height="60" as="geometry" />
        </mxCell>
        <mxCell id="DGrf6kbu_troe9t0G2w3-54" value="" style="rounded=0;whiteSpace=wrap;html=1;" parent="DGrf6kbu_troe9t0G2w3-53" vertex="1">
          <mxGeometry width="120" height="60" as="geometry" />
        </mxCell>
        <mxCell id="DGrf6kbu_troe9t0G2w3-55" value="" style="endArrow=none;html=1;rounded=0;exitX=0.25;exitY=0;exitDx=0;exitDy=0;entryX=0.25;entryY=1;entryDx=0;entryDy=0;" parent="DGrf6kbu_troe9t0G2w3-53" source="DGrf6kbu_troe9t0G2w3-54" target="DGrf6kbu_troe9t0G2w3-54" edge="1">
          <mxGeometry width="50" height="50" relative="1" as="geometry">
            <mxPoint x="36" y="70" as="sourcePoint" />
            <mxPoint x="86" y="20" as="targetPoint" />
          </mxGeometry>
        </mxCell>
        <mxCell id="DGrf6kbu_troe9t0G2w3-56" value="" style="endArrow=none;html=1;rounded=0;entryX=0.5;entryY=0;entryDx=0;entryDy=0;exitX=0.5;exitY=1;exitDx=0;exitDy=0;" parent="DGrf6kbu_troe9t0G2w3-53" source="DGrf6kbu_troe9t0G2w3-54" target="DGrf6kbu_troe9t0G2w3-54" edge="1">
          <mxGeometry width="50" height="50" relative="1" as="geometry">
            <mxPoint x="36" y="140" as="sourcePoint" />
            <mxPoint x="86" y="90" as="targetPoint" />
          </mxGeometry>
        </mxCell>
        <mxCell id="DGrf6kbu_troe9t0G2w3-57" value="" style="endArrow=none;html=1;rounded=0;entryX=0.75;entryY=0;entryDx=0;entryDy=0;exitX=0.75;exitY=1;exitDx=0;exitDy=0;" parent="DGrf6kbu_troe9t0G2w3-53" source="DGrf6kbu_troe9t0G2w3-54" target="DGrf6kbu_troe9t0G2w3-54" edge="1">
          <mxGeometry width="50" height="50" relative="1" as="geometry">
            <mxPoint x="46" y="120" as="sourcePoint" />
            <mxPoint x="96" y="70" as="targetPoint" />
          </mxGeometry>
        </mxCell>
        <mxCell id="DGrf6kbu_troe9t0G2w3-58" value="" style="group" parent="1" vertex="1" connectable="0">
          <mxGeometry x="294" y="100" width="120" height="60" as="geometry" />
        </mxCell>
        <mxCell id="DGrf6kbu_troe9t0G2w3-18" value="" style="rounded=0;whiteSpace=wrap;html=1;" parent="DGrf6kbu_troe9t0G2w3-58" vertex="1">
          <mxGeometry width="120" height="60" as="geometry" />
        </mxCell>
        <mxCell id="DGrf6kbu_troe9t0G2w3-19" value="" style="endArrow=none;html=1;rounded=0;exitX=0.25;exitY=0;exitDx=0;exitDy=0;entryX=0.25;entryY=1;entryDx=0;entryDy=0;" parent="DGrf6kbu_troe9t0G2w3-58" source="DGrf6kbu_troe9t0G2w3-18" target="DGrf6kbu_troe9t0G2w3-18" edge="1">
          <mxGeometry width="50" height="50" relative="1" as="geometry">
            <mxPoint x="36" y="70" as="sourcePoint" />
            <mxPoint x="86" y="20" as="targetPoint" />
          </mxGeometry>
        </mxCell>
        <mxCell id="DGrf6kbu_troe9t0G2w3-20" value="" style="endArrow=none;html=1;rounded=0;entryX=0.5;entryY=0;entryDx=0;entryDy=0;exitX=0.5;exitY=1;exitDx=0;exitDy=0;" parent="DGrf6kbu_troe9t0G2w3-58" source="DGrf6kbu_troe9t0G2w3-18" target="DGrf6kbu_troe9t0G2w3-18" edge="1">
          <mxGeometry width="50" height="50" relative="1" as="geometry">
            <mxPoint x="36" y="140" as="sourcePoint" />
            <mxPoint x="86" y="90" as="targetPoint" />
          </mxGeometry>
        </mxCell>
        <mxCell id="DGrf6kbu_troe9t0G2w3-21" value="" style="endArrow=none;html=1;rounded=0;entryX=0.75;entryY=0;entryDx=0;entryDy=0;exitX=0.75;exitY=1;exitDx=0;exitDy=0;" parent="DGrf6kbu_troe9t0G2w3-58" source="DGrf6kbu_troe9t0G2w3-18" target="DGrf6kbu_troe9t0G2w3-18" edge="1">
          <mxGeometry width="50" height="50" relative="1" as="geometry">
            <mxPoint x="46" y="120" as="sourcePoint" />
            <mxPoint x="96" y="70" as="targetPoint" />
          </mxGeometry>
        </mxCell>
        <mxCell id="DGrf6kbu_troe9t0G2w3-61" value="" style="group" parent="1" vertex="1" connectable="0">
          <mxGeometry x="800" y="50" width="230" height="220" as="geometry" />
        </mxCell>
        <mxCell id="DGrf6kbu_troe9t0G2w3-60" value="" style="rounded=0;whiteSpace=wrap;html=1;" parent="DGrf6kbu_troe9t0G2w3-61" vertex="1">
          <mxGeometry width="230" height="220" as="geometry" />
        </mxCell>
        <mxCell id="DGrf6kbu_troe9t0G2w3-4" value="consumer" style="ellipse;whiteSpace=wrap;html=1;" parent="DGrf6kbu_troe9t0G2w3-61" vertex="1">
          <mxGeometry x="50" y="20" width="120" height="80" as="geometry" />
        </mxCell>
        <mxCell id="DGrf6kbu_troe9t0G2w3-5" value="consumer" style="ellipse;whiteSpace=wrap;html=1;" parent="DGrf6kbu_troe9t0G2w3-61" vertex="1">
          <mxGeometry x="50" y="125" width="120" height="80" as="geometry" />
        </mxCell>
        <mxCell id="DGrf6kbu_troe9t0G2w3-62" value="" style="group" parent="1" vertex="1" connectable="0">
          <mxGeometry x="800" y="300" width="230" height="220" as="geometry" />
        </mxCell>
        <mxCell id="DGrf6kbu_troe9t0G2w3-63" value="" style="rounded=0;whiteSpace=wrap;html=1;" parent="DGrf6kbu_troe9t0G2w3-62" vertex="1">
          <mxGeometry width="230" height="220" as="geometry" />
        </mxCell>
        <mxCell id="DGrf6kbu_troe9t0G2w3-64" value="consumer" style="ellipse;whiteSpace=wrap;html=1;" parent="DGrf6kbu_troe9t0G2w3-62" vertex="1">
          <mxGeometry x="50" y="20" width="120" height="80" as="geometry" />
        </mxCell>
        <mxCell id="DGrf6kbu_troe9t0G2w3-65" value="consumer" style="ellipse;whiteSpace=wrap;html=1;" parent="DGrf6kbu_troe9t0G2w3-62" vertex="1">
          <mxGeometry x="50" y="125" width="120" height="80" as="geometry" />
        </mxCell>
        <mxCell id="DGrf6kbu_troe9t0G2w3-66" style="rounded=0;orthogonalLoop=1;jettySize=auto;html=1;exitX=0;exitY=0.5;exitDx=0;exitDy=0;entryX=1;entryY=0.5;entryDx=0;entryDy=0;" parent="1" source="DGrf6kbu_troe9t0G2w3-60" target="DGrf6kbu_troe9t0G2w3-7" edge="1">
          <mxGeometry relative="1" as="geometry">
            <mxPoint x="730" y="270" as="targetPoint" />
          </mxGeometry>
        </mxCell>
        <mxCell id="DGrf6kbu_troe9t0G2w3-67" style="rounded=0;orthogonalLoop=1;jettySize=auto;html=1;exitX=0;exitY=0.5;exitDx=0;exitDy=0;" parent="1" source="DGrf6kbu_troe9t0G2w3-63" edge="1">
          <mxGeometry relative="1" as="geometry">
            <mxPoint x="650" y="330" as="targetPoint" />
          </mxGeometry>
        </mxCell>
        <mxCell id="DGrf6kbu_troe9t0G2w3-68" value="动态注册订阅关系" style="text;html=1;strokeColor=none;fillColor=none;align=center;verticalAlign=middle;whiteSpace=wrap;rounded=0;" parent="1" vertex="1">
          <mxGeometry x="680" y="180" width="60" height="30" as="geometry" />
        </mxCell>
        <mxCell id="DGrf6kbu_troe9t0G2w3-71" value="动态注册订阅关系" style="text;html=1;strokeColor=none;fillColor=none;align=center;verticalAlign=middle;whiteSpace=wrap;rounded=0;" parent="1" vertex="1">
          <mxGeometry x="680" y="365" width="60" height="30" as="geometry" />
        </mxCell>
        <mxCell id="DGrf6kbu_troe9t0G2w3-74" value="" style="endArrow=none;html=1;rounded=0;exitX=1;exitY=0.5;exitDx=0;exitDy=0;startArrow=classic;startFill=1;" parent="1" source="DGrf6kbu_troe9t0G2w3-12" edge="1">
          <mxGeometry width="50" height="50" relative="1" as="geometry">
            <mxPoint x="660" y="590" as="sourcePoint" />
            <mxPoint x="650" y="330" as="targetPoint" />
          </mxGeometry>
        </mxCell>
        <mxCell id="DGrf6kbu_troe9t0G2w3-75" value="订阅" style="text;html=1;strokeColor=none;fillColor=none;align=center;verticalAlign=middle;whiteSpace=wrap;rounded=0;" parent="1" vertex="1">
          <mxGeometry x="610" y="180" width="60" height="30" as="geometry" />
        </mxCell>
        <mxCell id="DGrf6kbu_troe9t0G2w3-76" value="订阅" style="text;html=1;strokeColor=none;fillColor=none;align=center;verticalAlign=middle;whiteSpace=wrap;rounded=0;" parent="1" vertex="1">
          <mxGeometry x="610" y="355" width="60" height="30" as="geometry" />
        </mxCell>
        <mxCell id="J87HV3EQ0gowust4CYBL-1" value="包1" style="rounded=1;whiteSpace=wrap;html=1;" vertex="1" parent="1">
          <mxGeometry x="131" y="810" width="120" height="60" as="geometry" />
        </mxCell>
        <mxCell id="J87HV3EQ0gowust4CYBL-2" value="包2" style="rounded=1;whiteSpace=wrap;html=1;" vertex="1" parent="1">
          <mxGeometry x="131" y="930" width="120" height="60" as="geometry" />
        </mxCell>
        <mxCell id="J87HV3EQ0gowust4CYBL-3" value="包3" style="rounded=1;whiteSpace=wrap;html=1;" vertex="1" parent="1">
          <mxGeometry x="131" y="1030" width="120" height="60" as="geometry" />
        </mxCell>
        <mxCell id="J87HV3EQ0gowust4CYBL-7" style="edgeStyle=orthogonalEdgeStyle;rounded=0;orthogonalLoop=1;jettySize=auto;html=1;exitX=0.5;exitY=1;exitDx=0;exitDy=0;entryX=0.5;entryY=0;entryDx=0;entryDy=0;" edge="1" parent="1" source="J87HV3EQ0gowust4CYBL-4" target="J87HV3EQ0gowust4CYBL-5">
          <mxGeometry relative="1" as="geometry" />
        </mxCell>
        <mxCell id="J87HV3EQ0gowust4CYBL-4" value="全量发布" style="text;html=1;strokeColor=none;fillColor=none;align=center;verticalAlign=middle;whiteSpace=wrap;rounded=0;" vertex="1" parent="1">
          <mxGeometry x="300" y="825" width="60" height="30" as="geometry" />
        </mxCell>
        <mxCell id="J87HV3EQ0gowust4CYBL-5" value="指定xxxx" style="text;html=1;strokeColor=none;fillColor=none;align=center;verticalAlign=middle;whiteSpace=wrap;rounded=0;" vertex="1" parent="1">
          <mxGeometry x="300" y="945" width="60" height="30" as="geometry" />
        </mxCell>
        <mxCell id="J87HV3EQ0gowust4CYBL-6" value="指定xxxx" style="text;html=1;strokeColor=none;fillColor=none;align=center;verticalAlign=middle;whiteSpace=wrap;rounded=0;" vertex="1" parent="1">
          <mxGeometry x="300" y="1045" width="60" height="30" as="geometry" />
        </mxCell>
      </root>
    </mxGraphModel>
  </diagram>
</mxfile>
